<?xml version="1.0" encoding="UTF-8"?>
<svg id="Layer_2" data-name="Layer 2" xmlns="http://www.w3.org/2000/svg" xmlns:xlink="http://www.w3.org/1999/xlink" viewBox="0 0 1059.87 267.66">
  <defs>
    <style>
      .cls-1, .cls-2, .cls-3, .cls-4, .cls-5 {
        fill: none;
      }

      .cls-1, .cls-3, .cls-4, .cls-5 {
        stroke: #231f20;
        stroke-linecap: round;
        stroke-linejoin: round;
      }

      .cls-6 {
        clip-path: url(#clippath);
      }

      .cls-2, .cls-7, .cls-8 {
        stroke-width: 0px;
      }

      .cls-3 {
        stroke-dasharray: 0 0 33.5 33.5;
      }

      .cls-3, .cls-4 {
        stroke-width: 10px;
      }

      .cls-5 {
        stroke-width: 4px;
      }

      .cls-7 {
        fill: #231f20;
      }

      .cls-8 {
        fill: #fff;
      }
    </style>
    <clipPath id="clippath">
      <polygon class="cls-2" points="15.03 75.44 15.03 192.23 116.17 250.62 217.31 192.23 217.31 75.44 116.17 17.04 15.03 75.44"/>
    </clipPath>
  </defs>
  <g id="title">
    <path class="cls-7" d="M344.93,58.93c5.4,0,28.75.86,30.05.86s3.24,1.95,3.67,3.03c.87,3.24,3.24,8.43,7.78,19.02,4.76,11.03,30.05,63.78,36.32,75.45.43.87,1.73.65,3.03-1.95,1.51-2.81,32.21-64.42,37.4-74.59,4.54-9.51,6.7-14.05,7.78-17.73.22-1.3,2.59-3.24,3.89-3.24,3.68,0,20.97-1.08,27.89-1.08,2.16,0,6.92.86,6.92,4.11,0,1.95-1.3,3.03-6.7,4.32-12.97,2.81-16,6.7-16,10.38,0,35.02,1.51,71.99,2.38,86.47.65,15.78,4.76,17.51,13.62,20.54,4.76,1.51,6.7,3.46,6.7,4.76,0,2.16-2.16,3.89-6.27,3.89-2.59,0-23.13-1.3-28.97-1.3-6.49,0-10.59.65-15.78.65-3.46,0-6.7-1.51-6.7-3.68,0-2.38,2.81-3.89,7.35-4.97,7.78-2.16,9.08-4.54,9.3-16.43.22-5.62.22-52.97.22-73.72,0-1.51-2.38-.43-2.59,0-4.54,8.21-27.89,58.59-31.13,65.29-2.59,5.4-9.3,20.54-11.46,26.81-1.73,5.19-4.97,7.57-7.57,7.57-1.95,0-3.89-3.68-5.4-7.35-2.59-5.62-8.86-23.35-11.03-28.97-8-19.67-21.62-47.34-27.89-62.69-.22-.22-1.95-1.95-2.16-.22-1.95,19.02-3.89,61.83-3.89,72.86,0,12.97,2.81,14.27,12.97,16.86,4.97,1.08,5.84,3.03,5.84,4.97,0,2.38-3.68,3.68-6.92,3.68-3.03,0-10.59-.65-16.86-.65-6.92,0-20.75,1.08-23.56,1.08-4.11,0-6.92-1.08-6.92-3.89,0-1.95,1.51-3.46,6.7-4.76,9.94-2.38,14.48-7.57,16-16.65,2.59-14.92,8-78.26,8-83.45,0-12.32-2.16-14.7-16.43-17.29-3.24-.43-5.84-1.95-5.84-3.46,0-2.38,3.67-4.54,6.27-4.54Z"/>
    <path class="cls-7" d="M583.18,109.73c4.32,3.89,7.35,14.05,7.35,18.59,0,8.22-.87,17.3-.87,41.51,0,7.13,3.68,10.59,7.78,10.59,1.73,0,5.62-1.08,7.35-1.95.86-.43,1.95,1.73,1.95,3.46,0,.87-1.51,4.97-1.95,5.62-3.24,4.32-8.43,7.78-15.78,7.78-5.62,0-12.54-2.16-15.35-13.4,0-.22-1.73-1.3-2.16-1.08-4.54,3.46-11.67,7.57-16.65,10.38-3.89,2.16-7.57,3.24-11.46,3.24-6.49,0-20.54-8-20.54-25.51,0-5.19,1.73-8.43,3.24-10.38,3.24-4.11,7.78-6.05,8.65-6.27,21.83-5.19,32-7.78,36.75-10.38,1.08-.43,2.38-1.95,2.38-3.24v-8.22c0-2.38,0-3.68-.65-5.62-3.03-8.43-12.32-12.11-19.02-12.11-4.54,0-8.86,1.95-9.73,2.81-.86,1.08-1.73,4.11-2.16,10.59-.22,2.38-1.08,4.11-1.95,4.76-1.08.87-4.97,1.73-6.27,1.73-1.73,0-7.13-.21-9.08-1.08-1.08-.43-2.59-2.59-2.59-3.46,0-3.68,6.27-10.38,15.57-16.86,8.22-5.4,18.16-9.73,25.51-9.73,8,0,13.4,2.38,19.67,8.22ZM571.29,172.64c.65-1.51,1.51-3.89,1.73-6.49l.22-13.84c0-.87-1.08-1.3-1.73-1.3-6.27,1.08-18.81,4.11-23.13,5.62-6.05,2.16-8,4.54-8,9.94,0,6.92,6.49,13.4,14.48,13.4,4.76,0,11.67-2.81,16.43-7.35Z"/>
    <path class="cls-7" d="M697.11,110.81c9.3,8.21,13.84,22.05,13.84,32,0,20.97-11.03,37.62-32.64,46.91-6.05,2.81-19.24,4.54-23.78,4.54-2.59,0-6.49,0-8-.43-.65-.22-2.16,2.59-2.16,4.32,0,9.73-.22,20.11,0,27.24,0,3.03.65,5.41,11.67,8.65,4.97,1.51,6.49,3.03,6.49,4.32,0,2.38-2.38,4.11-6.05,4.11-1.73,0-9.94.43-19.89.43-8.86,0-19.67,1.95-22.48,1.95-2.59,0-6.27-.65-6.27-3.89,0-1.3,1.73-3.24,5.84-4.32,10.16-2.81,11.46-6.92,11.89-14.27.65-12.97,1.3-24.65,1.3-38.05.43-41.29,0-49.07-.22-57.94,0-1.51-.43-3.24-7.35-8.22-3.03-1.95-3.89-3.03-3.89-3.67,0-1.95,2.59-4.54,4.97-5.84,3.24-1.51,10.59-4.54,13.84-6.7,2.81-1.73,5.84-3.24,7.35-3.24.86,0,3.03,2.16,3.03,3.03,0,1.73-.65,6.05-.65,8.65,0,.86,1.3,1.51,2.16,1.08,5.4-3.24,12.11-6.27,14.48-7.13,5.19-1.95,9.08-2.59,13.19-2.59,9.51,0,17.29,3.46,23.35,9.08ZM647.82,118.81c-.43.22-2.59,2.16-2.81,4.11-.43,7.13-.65,23.35-.65,32.21,0,12.54.65,15.35,1.95,17.29,6.49,9.29,16.21,11.67,18.59,11.67,7.78,0,13.19-3.24,16.86-6.92,4.76-4.97,10.16-14.7,10.16-26.81,0-16.21-8.65-36.1-27.67-36.1-7.13,0-12.54,1.95-16.43,4.54Z"/>
    <path class="cls-7" d="M809.96,110.81c9.3,8.21,13.84,22.05,13.84,32,0,20.97-11.03,37.62-32.64,46.91-6.05,2.81-19.24,4.54-23.78,4.54-2.59,0-6.49,0-8-.43-.65-.22-2.16,2.59-2.16,4.32,0,9.73-.22,20.11,0,27.24,0,3.03.65,5.41,11.67,8.65,4.97,1.51,6.49,3.03,6.49,4.32,0,2.38-2.38,4.11-6.05,4.11-1.73,0-9.95.43-19.89.43-8.86,0-19.67,1.95-22.48,1.95-2.59,0-6.27-.65-6.27-3.89,0-1.3,1.73-3.24,5.84-4.32,10.16-2.81,11.46-6.92,11.89-14.27.65-12.97,1.3-24.65,1.3-38.05.43-41.29,0-49.07-.22-57.94,0-1.51-.43-3.24-7.35-8.22-3.03-1.95-3.89-3.03-3.89-3.67,0-1.95,2.59-4.54,4.97-5.84,3.24-1.51,10.59-4.54,13.84-6.7,2.81-1.73,5.84-3.24,7.35-3.24.87,0,3.03,2.16,3.03,3.03,0,1.73-.65,6.05-.65,8.65,0,.86,1.3,1.51,2.16,1.08,5.4-3.24,12.11-6.27,14.48-7.13,5.19-1.95,9.08-2.59,13.19-2.59,9.51,0,17.29,3.46,23.35,9.08ZM760.67,118.81c-.43.22-2.59,2.16-2.81,4.11-.43,7.13-.65,23.35-.65,32.21,0,12.54.65,15.35,1.95,17.29,6.49,9.29,16.21,11.67,18.59,11.67,7.78,0,13.19-3.24,16.86-6.92,4.76-4.97,10.16-14.7,10.16-26.81,0-16.21-8.65-36.1-27.67-36.1-7.13,0-12.54,1.95-16.43,4.54Z"/>
    <path class="cls-7" d="M843.03,53.09c6.92-2.81,14.92-5.62,19.46-6.92,2.16-.65,3.89-.86,4.54-.86,1.73,0,2.59,3.24,2.59,9.3,0,17.08-.65,44.53-.65,64.64,0,12.97,0,47.56.43,52.75.65,8.86,1.3,9.08,11.67,12.97,3.46,1.3,4.54,3.24,4.54,4.54,0,1.73-1.51,3.03-6.27,3.03-6.05,0-14.92-.65-20.54-.65-8.43,0-12.97.87-17.94.87-3.46,0-6.27-.65-6.27-2.6,0-2.16,1.51-3.89,5.41-5.19,9.94-3.68,10.16-6.49,10.81-10.81.43-3.46.87-16.86.87-54.05,0-29.19,0-49.07-.65-52.53-.43-2.59-3.24-4.32-6.92-5.84-4.32-1.73-5.19-3.03-5.19-4.76s2.59-3.24,4.11-3.89Z"/>
    <path class="cls-7" d="M958.69,109.73c4.32,3.89,7.35,14.05,7.35,18.59,0,8.22-.87,17.3-.87,41.51,0,7.13,3.68,10.59,7.78,10.59,1.73,0,5.62-1.08,7.35-1.95.87-.43,1.95,1.73,1.95,3.46,0,.87-1.51,4.97-1.95,5.62-3.24,4.32-8.43,7.78-15.78,7.78-5.62,0-12.54-2.16-15.35-13.4,0-.22-1.73-1.3-2.16-1.08-4.54,3.46-11.67,7.57-16.65,10.38-3.89,2.16-7.57,3.24-11.46,3.24-6.49,0-20.54-8-20.54-25.51,0-5.19,1.73-8.43,3.24-10.38,3.24-4.11,7.78-6.05,8.65-6.27,21.84-5.19,32-7.78,36.75-10.38,1.08-.43,2.38-1.95,2.38-3.24v-8.22c0-2.38,0-3.68-.65-5.62-3.03-8.43-12.32-12.11-19.03-12.11-4.54,0-8.86,1.95-9.73,2.81-.86,1.08-1.73,4.11-2.16,10.59-.22,2.38-1.08,4.11-1.95,4.76-1.08.87-4.97,1.73-6.27,1.73-1.73,0-7.13-.21-9.08-1.08-1.08-.43-2.59-2.59-2.59-3.46,0-3.68,6.27-10.38,15.57-16.86,8.21-5.4,18.16-9.73,25.51-9.73,8,0,13.4,2.38,19.67,8.22ZM946.8,172.64c.65-1.51,1.51-3.89,1.73-6.49l.22-13.84c0-.87-1.08-1.3-1.73-1.3-6.27,1.08-18.81,4.11-23.13,5.62-6.05,2.16-8,4.54-8,9.94,0,6.92,6.49,13.4,14.48,13.4,4.76,0,11.68-2.81,16.43-7.35Z"/>
    <path class="cls-7" d="M998.47,109.51c3.46-1.95,10.16-4.97,14.7-7.35,2.81-1.3,4.54-2.16,6.27-2.16.86,0,2.59,2.38,2.59,3.03.22,3.03.22,7.35.43,10.59,0,.65,1.51,1.51,2.16.65,6.27-6.92,14.92-12.76,23.35-12.76,6.27,0,11.89,4.32,11.89,6.7,0,4.76-5.62,10.81-8.65,13.19-1.08,1.08-2.6,1.73-3.46,1.73-1.51,0-2.81-.65-4.97-2.16-1.73-1.3-4.97-2.59-7.78-2.59-3.89,0-7.13,1.3-9.95,4.97-.86,1.08-1.95,3.68-1.95,4.97,0,2.16-.21,33.29.43,40.86.65,10.16,2.38,12.32,12.11,14.92,4.97,1.3,7.78,3.03,7.78,4.97,0,1.73-2.81,3.68-5.4,3.68-6.7,0-17.73-.87-24-.87-7.57,0-11.46.65-17.51.65-3.89,0-5.84-2.38-5.84-3.46,0-2.38,2.38-3.68,4.97-4.54,8.43-3.03,9.08-6.27,9.3-11.24.43-9.73.65-36.32.65-47.78,0-1.3-.22-2.81-5.41-6.49-2.38-1.73-4.76-3.68-4.76-4.97,0-1.95,1.3-3.68,3.03-4.54Z"/>
    <g>
      <line class="cls-4" x1="542.35" y1="59.71" x2="559.35" y2="59.71"/>
      <line class="cls-3" x1="592.84" y1="59.71" x2="777.07" y2="59.71"/>
      <line class="cls-4" x1="793.82" y1="59.71" x2="810.82" y2="59.71"/>
    </g>
  </g>
  <g id="logo-text">
    <g class="cls-6">
      <g>
        <polyline class="cls-1" points="-39.81 -.95 117.66 29.63 233.06 -48.12"/>
        <polygon class="cls-1" points="-39.81 8.15 103.46 36.54 96.62 42 70.7 123.55 -39.81 163.95 -39.81 8.15"/>
        <polygon class="cls-1" points="117.66 41.64 105.65 48.19 81.26 125.73 123.85 199.99 191.56 158.49 117.66 41.64"/>
        <polygon class="cls-1" points="125.3 35.45 199.2 153.03 237.42 130.46 164.62 11.06 125.3 35.45"/>
        <polygon class="cls-1" points="254.9 -48.12 172.26 4.51 245.43 124.64 300.33 89.69 300.33 -48.12 254.9 -48.12"/>
        <polygon class="cls-1" points="73.61 134.1 -39.81 175.6 -39.81 222.56 85.63 222.56 116.2 205.09 73.61 134.1"/>
        <polygon class="cls-1" points="83.44 233.85 -39.81 233.85 -39.81 292.01 118.39 292.01 83.44 233.85"/>
        <polygon class="cls-1" points="93.27 230.93 197.02 167.23 253.81 195.62 120.94 275.71 93.27 230.93"/>
        <polygon class="cls-1" points="125.3 285.54 130.26 292.01 223.59 292.01 300.33 245.13 300.33 221.47 264 199.99 125.3 285.54"/>
        <polygon class="cls-1" points="300.33 253.5 239.61 292.01 300.33 292.01 300.33 253.5"/>
        <polygon class="cls-1" points="273.46 194.89 300.33 209.82 300.33 178.33 273.46 194.89"/>
        <polygon class="cls-1" points="300.33 165.41 262.91 189.07 208.3 159.58 300.33 103.16 300.33 165.41"/>
        <polygon class="cls-1" points="67.06 153.03 -21.03 183.61 -21.03 208.73 81.26 209.82 96.62 201.08 67.06 153.03"/>
        <path class="cls-1" d="M278.2-48.12l-58.24,38.88c-1.9,6.13-7.96,28.37,2.55,53.07,12.74,29.93,40.03,40.48,44.78,42.23,11.02-6.31,22.03-12.62,33.05-18.93"/>
        <polyline class="cls-1" points="300.33 116.99 247.25 148.66 264 176.33 300.33 155.58"/>
        <polygon class="cls-1" points="108.56 233.85 151.15 208 167.9 233.85 125.3 261.15 108.56 233.85"/>
        <polygon class="cls-1" points="161.34 199.99 178.45 227.66 215.58 205.45 198.47 178.33 186.1 185.79 191.56 194.08 181.36 201.45 173.54 192.35 161.34 199.99"/>
        <polygon class="cls-1" points="212.81 244.04 264.73 213.46 281.47 240.76 229.78 272.76 212.81 244.04"/>
        <polygon class="cls-1" points="161.34 275.71 202.84 251.68 210.12 263.7 169.72 287.72 161.34 275.71"/>
        <path class="cls-1" d="M125.31,171.87l-28.69-49.92,13.98-43.94c1.23-3.88,6.43-4.55,8.61-1.11l45.88,72.46c2.56,4.04,1.36,9.39-2.67,11.96l-22.31,14.19c-5.07,3.22-11.8,1.57-14.8-3.64Z"/>
        <path class="cls-1" d="M163.83,61.98l6.52-3.83c2.87-1.68,3.83-5.37,2.16-8.24l-10.78-18.51c-1.64-2.82-5.22-3.82-8.08-2.27l-7.37,3.98c-3.08,1.66-4.1,5.58-2.23,8.54l11.62,18.36c1.74,2.75,5.35,3.63,8.16,1.98Z"/>
        <polygon class="cls-1" points="161.34 72.58 188.46 116.99 208.3 106.07 181.36 61.3 161.34 72.58"/>
        <polygon class="cls-1" points="195.63 124.82 204.66 140.29 219.95 130.1 212.81 116.99 195.63 124.82"/>
        <line class="cls-1" x1="193.74" y1="-49.73" x2="86.97" y2="23.67"/>
        <path class="cls-1" d="M155.52-49.73c-18.24,12.9-33.25,22.22-43.68,28.39-10.25,6.07-19.7,11.24-30.58,21.48-7.66,7.21-13.02,14.09-16.38,18.82"/>
        <path class="cls-1" d="M59.76,27.88c-1.57,3.23-3.84,8.34-5.81,14.85-4.86,16.07-2.25,22.09-6.55,32.03-4.27,9.88-11.76,15.3-19.29,20.75-6.73,4.87-12.37,7.08-34.22,14.93-8.73,3.13-20.16,7.12-33.7,11.5"/>
        <path class="cls-1" d="M-39.81,143.57c7.08-2.21,16.9-5.32,28.61-9.1,41.37-13.38,45.58-15.68,49.94-18.77,6.56-4.65,26.04-18.44,30.4-39.86,1.47-7.2,1.46-16.4,6.66-30.92,1.97-5.5,4.01-9.88,5.46-12.77"/>
        <path class="cls-1" d="M-39.81,246c5.74-.23,13.97-.54,23.87-.87,32.49-1.1,37.96-.92,43.68-.36,10.57,1.03,22.55,2.2,34.95,8.01,20.28,9.5,31.98,26.86,38.22,39.24"/>
        <polyline class="cls-1" points="-39.81 8.15 -39.81 -48.12 254.9 -48.12"/>
        <path class="cls-1" d="M18.34-13.75l-1.56,7.55c-.47,2.29,1.01,4.52,3.3,4.96l31.08,6.04c2.26.44,4.44-1.02,4.9-3.27l1.43-6.97c.46-2.25-.98-4.46-3.23-4.94l-30.95-6.62c-2.27-.49-4.51.97-4.98,3.25Z"/>
        <path class="cls-1" d="M-39.81,61.3L-1.23,68.79c3.04.59,5.04,3.52,4.49,6.57L-.04,93.45c-.53,2.93-3.37,4.84-6.29,4.24l-33.49-6.91"/>
        <path class="cls-1" d="M2.03,37.72l-1.42,8.81c-.4,2.45,1.22,4.78,3.65,5.27l28.17,5.65c2.57.51,5.05-1.21,5.47-3.79l1.35-8.31c.39-2.42-1.18-4.73-3.57-5.25l-28.09-6.15c-2.59-.57-5.12,1.16-5.55,3.77Z"/>
      </g>
    </g>
    <polygon class="cls-5" points="2 67.92 2 199.75 116.17 265.66 230.34 199.75 230.34 67.92 116.17 2 2 67.92"/>
    <g>
      <path class="cls-7" d="M142.54,81.78c.03-.16.04-.33.02-.49-.51-3.84.24-7.64,2.16-10.97,3.1-5.37,8.88-8.7,15.08-8.7,3.03,0,6.04.81,8.68,2.33,8.31,4.8,11.16,15.45,6.37,23.76-1.92,3.33-4.84,5.88-8.42,7.36-.15.06-.29.15-.41.26l-31.58,27.6,8.11-41.15Z"/>
      <path class="cls-7" d="M159.79,63.12c2.77,0,5.51.74,7.93,2.13,3.68,2.12,6.31,5.55,7.41,9.65s.53,8.38-1.59,12.06c-1.76,3.04-4.42,5.37-7.69,6.72-.3.12-.58.3-.83.51l-28.27,24.71,7.26-36.84c.06-.32.07-.65.03-.98-.47-3.51.22-6.98,1.97-10.02,2.83-4.9,8.11-7.95,13.78-7.95M159.79,60.12c-6.53,0-12.88,3.39-16.38,9.45-2.17,3.75-2.88,7.93-2.35,11.92l-8.96,45.46,34.89-30.49c3.72-1.53,6.98-4.24,9.15-7.99,5.22-9.04,2.12-20.59-6.92-25.81-2.98-1.72-6.22-2.53-9.43-2.53h0Z"/>
    </g>
    <g>
      <circle class="cls-8" cx="159.91" cy="78.16" r="7.41"/>
      <path class="cls-7" d="M159.91,72.25c3.26,0,5.91,2.65,5.91,5.91s-2.65,5.91-5.91,5.91-5.91-2.65-5.91-5.91,2.65-5.91,5.91-5.91M159.91,69.25c-4.92,0-8.91,3.99-8.91,8.91s3.99,8.91,8.91,8.91,8.91-3.99,8.91-8.91-3.99-8.91-8.91-8.91h0Z"/>
    </g>
  </g>
</svg>