<?xml version="1.0" encoding="UTF-8"?>
<svg id="Layer_2" data-name="Layer 2" xmlns="http://www.w3.org/2000/svg" xmlns:xlink="http://www.w3.org/1999/xlink" viewBox="0 0 211.85 244">
  <defs>
    <style>
      .cls-1, .cls-2 {
        stroke: #0a0e15;
        stroke-linecap: round;
        stroke-linejoin: round;
      }

      .cls-1, .cls-2, .cls-3, .cls-4 {
        fill: none;
      }

      .cls-2 {
        stroke-width: 4px;
      }

      .cls-5 {
        fill: #f08c00;
      }

      .cls-6 {
        fill: #f2f5fb;
      }

      .cls-4 {
        clip-path: url(#clippath);
      }
    </style>
    <clipPath id="clippath">
      <polygon class="cls-3" points="13.86 68.85 13.86 175.15 105.92 228.31 197.99 175.15 197.99 68.85 105.92 15.69 13.86 68.85"/>
    </clipPath>
  </defs>
  <g id="Layer_2-2" data-name="Layer 2">
    <g class="cls-4">
      <g>
        <polyline class="cls-1" points="-36.06 -.69 107.28 27.15 212.32 -43.63"/>
        <polygon class="cls-1" points="-36.06 7.6 94.36 33.44 88.13 38.41 64.53 112.64 -36.06 149.42 -36.06 7.6"/>
        <polygon class="cls-1" points="107.28 38.08 96.34 44.05 74.14 114.62 112.91 182.22 174.54 144.45 107.28 38.08"/>
        <polygon class="cls-1" points="114.24 32.45 181.5 139.48 216.29 118.93 150.02 10.25 114.24 32.45"/>
        <polygon class="cls-1" points="232.2 -43.63 156.98 4.28 223.58 113.63 273.55 81.82 273.55 -43.63 232.2 -43.63"/>
        <polygon class="cls-1" points="67.18 122.25 -36.06 160.02 -36.06 202.77 78.12 202.77 105.95 186.86 67.18 122.25"/>
        <polygon class="cls-1" points="76.13 213.04 -36.06 213.04 -36.06 265.99 107.94 265.99 76.13 213.04"/>
        <polygon class="cls-1" points="85.08 210.39 179.51 152.4 231.21 178.24 110.26 251.14 85.08 210.39"/>
        <polygon class="cls-1" points="114.24 260.09 118.74 265.99 203.7 265.99 273.55 223.31 273.55 201.77 240.48 182.22 114.24 260.09"/>
        <polygon class="cls-1" points="273.55 150.74 239.49 172.28 189.79 145.44 273.55 94.08 273.55 150.74"/>
        <polygon class="cls-1" points="61.22 139.48 -18.97 167.31 -18.97 190.17 74.14 191.17 88.13 183.22 61.22 139.48"/>
        <path class="cls-1" d="m253.41-43.63l-53.02,35.39c-1.73,5.58-7.25,25.83,2.32,48.31,11.59,27.24,36.44,36.85,40.76,38.44,10.03-5.74,20.06-11.49,30.08-17.23"/>
        <polygon class="cls-1" points="98.99 213.04 137.76 189.51 153.01 213.04 114.24 237.89 98.99 213.04"/>
        <polygon class="cls-1" points="147.04 182.22 162.62 207.4 196.41 187.19 180.84 162.51 169.57 169.3 174.54 176.84 165.27 183.55 158.14 175.26 147.04 182.22"/>
        <polygon class="cls-1" points="193.89 222.32 241.15 194.48 256.39 219.33 209.34 248.46 193.89 222.32"/>
        <polygon class="cls-1" points="147.04 251.14 184.82 229.27 191.44 240.21 154.66 262.08 147.04 251.14"/>
        <path class="cls-1" d="m114.24,156.62l-26.11-45.44,12.72-40c1.12-3.53,5.86-4.14,7.84-1.01l41.76,65.96c2.33,3.68,1.24,8.55-2.43,10.89l-20.3,12.92c-4.61,2.93-10.74,1.43-13.47-3.31Z"/>
        <path class="cls-1" d="m149.3,56.6l5.94-3.49c2.61-1.53,3.49-4.89,1.97-7.5l-9.81-16.85c-1.49-2.56-4.75-3.48-7.36-2.07l-6.7,3.62c-2.8,1.51-3.73,5.08-2.03,7.77l10.58,16.71c1.58,2.5,4.87,3.3,7.42,1.8Z"/>
        <polygon class="cls-1" points="147.04 66.25 171.73 106.67 189.79 96.73 165.27 55.97 147.04 66.25"/>
        <polygon class="cls-1" points="178.25 113.8 186.47 127.88 200.39 118.6 193.89 106.67 178.25 113.8"/>
        <line class="cls-1" x1="176.53" y1="-45.09" x2="79.34" y2="21.72"/>
        <path class="cls-1" d="m141.74-45.09c-16.6,11.74-30.27,20.22-39.76,25.85-9.33,5.52-17.93,10.23-27.83,19.55-6.97,6.56-11.85,12.82-14.91,17.13"/>
        <path class="cls-1" d="m54.58,25.56c-1.43,2.94-3.5,7.59-5.29,13.52-4.42,14.62-2.05,20.11-5.96,29.16-3.89,8.99-10.7,13.93-17.56,18.89-6.13,4.43-11.26,6.44-31.15,13.59-7.95,2.85-18.35,6.48-30.68,10.47"/>
        <path class="cls-1" d="m-36.06,130.86c6.44-2.01,15.38-4.84,26.04-8.28,37.66-12.18,41.49-14.27,45.46-17.08,5.97-4.23,23.7-16.79,27.68-36.28,1.33-6.55,1.33-14.93,6.06-28.15,1.79-5,3.65-8.99,4.97-11.63"/>
        <path class="cls-1" d="m-36.06,224.1c5.23-.21,12.72-.49,21.73-.79,29.57-1,34.55-.84,39.76-.33,9.62.94,20.52,2,31.81,7.29,18.46,8.65,29.11,24.45,34.79,35.72"/>
        <polyline class="cls-1" points="-36.06 7.6 -36.06 -43.63 232.2 -43.63"/>
        <path class="cls-1" d="m16.87-12.33l-1.42,6.87c-.43,2.08.92,4.11,3.01,4.52l28.29,5.5c2.05.4,4.04-.93,4.46-2.98l1.3-6.35c.42-2.05-.89-4.06-2.94-4.49l-28.17-6.03c-2.07-.44-4.1.88-4.53,2.96Z"/>
        <path class="cls-1" d="m-36.06,55.97L-.94,62.79c2.77.54,4.59,3.2,4.09,5.98L.14,85.24c-.49,2.67-3.07,4.41-5.72,3.86l-30.48-6.29"/>
        <path class="cls-1" d="m2.03,34.51l-1.3,8.02c-.36,2.23,1.11,4.35,3.32,4.79l25.64,5.14c2.34.47,4.6-1.1,4.98-3.45l1.22-7.57c.36-2.2-1.07-4.3-3.25-4.78l-25.57-5.59c-2.36-.52-4.66,1.05-5.05,3.44Z"/>
      </g>
    </g>
    <polygon class="cls-2" points="2 62 2 182 105.92 242 209.85 182 209.85 62 105.92 2 2 62"/>
    <path class="cls-5" d="m152.18,87.98c3.38-1.4,6.35-3.86,8.33-7.28,4.75-8.23,1.93-18.74-6.29-23.49s-18.74-1.93-23.49,6.29c-1.97,3.41-2.62,7.22-2.14,10.85l-8.16,41.38,31.76-27.76Z"/>
    <circle class="cls-6" cx="145.74" cy="71.32" r="8.11"/>
  </g>
</svg>